Coordinates
version=1
nRows=26
nColumns=24
inDegrees=yes

Units are S.I. units (second, meters, Newtons, ...)
Angles are in degrees.

endheader
time	pelvis_tilt	pelvis_list	pelvis_rotation	pelvis_tx	pelvis_ty	pelvis_tz	hip_flexion_r	hip_adduction_r	hip_rotation_r	knee_angle_r	ankle_angle_r	subtalar_angle_r	mtp_angle_r	hip_flexion_l	hip_adduction_l	hip_rotation_l	knee_angle_l	ankle_angle_l	subtalar_angle_l	mtp_angle_l	lumbar_extension	lumbar_bending	lumbar_rotation
      3.21000000	    -10.16457335	     -9.03826512	      5.92780693	     -2.75530688	     -0.02065665	      0.43485653	     22.47468420	      8.88153768	     -7.44502724	    -15.60790137	     -7.15746439	     -7.62560913	      3.12178449	     18.17897351	     -8.39114981	      4.93739977	    -60.63083485	    -26.63864096	    -11.55231327	     20.94196741	      7.67448447	      8.14371289	     -5.95957833
      3.21500000	    -10.06065336	     -8.80443149	      5.68916522	     -2.74970891	     -0.01982643	      0.43578220	     21.85416619	      8.87030800	     -7.06678153	    -15.46791243	     -6.83260182	     -7.55045516	      3.36571179	     18.82758450	     -8.09298076	      4.85037150	    -61.23463848	    -26.11164291	    -12.63249975	     20.47730160	      7.49093066	      7.89753708	     -5.55504525
      3.22000000	     -9.98980414	     -8.54757224	      5.52099723	     -2.74409274	     -0.01898937	      0.43663112	     21.24995606	      8.80683269	     -6.72339621	    -15.29944885	     -6.53309822	     -7.55850534	      3.44959397	     19.51198307	     -7.74823210	      4.81157573	    -61.73612385	    -25.50003378	    -13.50616462	     20.03774250	      7.36655077	      7.60658627	     -5.27729927
      3.22500000	     -9.93716040	     -8.27074358	      5.34639043	     -2.73855679	     -0.01815252	      0.43744540	     20.67395094	      8.71207490	     -6.37242491	    -15.14389686	     -6.23886309	     -7.53766096	      3.51679671	     20.20616736	     -7.37870775	      4.77804815	    -62.14027471	    -24.78076922	    -14.09308012	     19.78396542	      7.25124473	      7.30241115	     -4.96608053
      3.23000000	     -9.90623351	     -7.95146488	      5.16813818	     -2.73304181	     -0.01729814	      0.43824743	     20.11863077	      8.56659284	     -6.01604589	    -14.98825050	     -5.95483927	     -7.52835122	      3.56202417	     20.89801084	     -6.96573075	      4.72441050	    -62.42736291	    -24.00559898	    -14.48196555	     19.63155233	      7.15622271	      6.95297235	     -4.64448775
      3.23500000	     -9.89495995	     -7.59216994	      4.99905526	     -2.72754720	     -0.01643846	      0.43902662	     19.58247977	      8.36929059	     -5.64703972	    -14.83274765	     -5.67454417	     -7.53491488	      3.59565976	     21.58853063	     -6.51389065	      4.65167233	    -62.59732214	    -23.19238841	    -14.70140431	     19.60693941	      7.08462621	      6.55791715	     -4.34916362
      3.24000000	     -9.90818757	     -7.20667543	      4.75069027	     -2.72203519	     -0.01557931	      0.43987005	     19.06477028	      8.16255513	     -5.17561316	    -14.67252725	     -5.39909462	     -7.50352890	      3.61819312	     22.26042776	     -6.06975786	      4.49641752	    -62.65914426	    -22.25206833	    -14.63959673	     19.62419164	      7.03384505	      6.15114043	     -3.93563552
      3.24500000	     -9.93451663	     -6.77434695	      4.54288108	     -2.71658236	     -0.01471311	      0.44064900	     18.57378568	      7.88554166	     -4.75047907	    -14.52843390	     -5.15008144	     -7.52501270	      3.61603010	     22.92834502	     -5.56310276	      4.36069023	    -62.60159819	    -21.33031233	    -14.48332573	     19.76063948	      6.99474929	      5.68960320	     -3.60848154
      3.25000000	     -9.97142703	     -6.32508959	      4.33186989	     -2.71114739	     -0.01386999	      0.44144180	     18.09325622	      7.58767404	     -4.30322930	    -14.37725098	     -4.89026094	     -7.55937338	      3.61043370	     23.58939266	     -5.05280568	      4.20585509	    -62.44301306	    -20.43161919	    -14.21904529	     19.97754238	      6.96916775	      5.21020665	     -3.28482068
      3.25500000	    -10.01360682	     -5.85312979	      4.12291216	     -2.70577747	     -0.01303490	      0.44219673	     17.63788153	      7.25492731	     -3.89056310	    -14.24848839	     -4.66018032	     -7.60575586	      3.59947922	     24.23461903	     -4.51911321	      4.04436390	    -62.17863868	    -19.57244421	    -13.92944258	     20.23511045	      6.94157916	      4.71196007	     -2.97185147
      3.26000000	    -10.05831160	     -5.38906439	      3.89777312	     -2.70038497	     -0.01224135	      0.44297337	     17.17615963	      6.93198787	     -3.44903424	    -14.09742211	     -4.41958194	     -7.64893368	      3.58479706	     24.86434156	     -4.01614165	      3.85701660	    -61.82996927	    -18.72883935	    -13.56268640	     20.52296185	      6.92523247	      4.22556980	     -2.64357944
      3.26500000	    -10.09841611	     -4.95245857	      3.65975870	     -2.69497200	     -0.01149735	      0.44373775	     16.69611040	      6.63589040	     -2.98417244	    -13.91138011	     -4.18163227	     -7.68136523	      3.56085580	     25.47641098	     -3.55766634	      3.66095659	    -61.40929296	    -17.91526953	    -13.15661148	     20.80508959	      6.91365899	      3.77287901	     -2.31547079
      3.27000000	    -10.12940446	     -4.51691615	      3.43311928	     -2.68963328	     -0.01079857	      0.44446103	     16.23413232	      6.32814596	     -2.58784086	    -13.75790449	     -3.96190393	     -7.73049932	      3.53853561	     26.06705349	     -3.09820355	      3.47098255	    -60.90824622	    -17.15494326	    -12.83393285	     21.04087217	      6.88349412	      3.32491840	     -2.01442017
      3.27500000	    -10.14070311	     -4.13165730	      3.18007090	     -2.68423918	     -0.01016540	      0.44518891	     15.72513493	      6.07639564	     -2.12760096	    -13.55268359	     -3.72811227	     -7.75447374	      3.50839048	     26.62607921	     -2.71774435	      3.26701822	    -60.35560832	    -16.41076325	    -12.48528934	     21.24553664	      6.84818342	      2.94209678	     -1.69820654
      3.28000000	    -10.14301611	     -3.76285645	      2.92879355	     -2.67884526	     -0.00958079	      0.44589019	     15.21334072	      5.83209629	     -1.73455841	    -13.34555219	     -3.50877416	     -7.77181786	      3.48507655	     27.16167962	     -2.36105195	      3.06263022	    -59.73358251	    -15.74025141	    -12.22875895	     21.38038233	      6.80677518	      2.57828810	     -1.38456603
      3.28500000	    -10.13146055	     -3.42591026	      2.67045223	     -2.67343662	     -0.00906514	      0.44656375	     14.68585696	      5.61463375	     -1.36426137	    -13.12770753	     -3.28830687	     -7.77799017	      3.46606202	     27.67081727	     -2.04896153	      2.85676260	    -59.05545497	    -15.11884568	    -12.04782419	     21.45698387	      6.75617767	      2.25435876	     -1.07550921
      3.29000000	    -10.08516066	     -3.13507805	      2.39671753	     -2.66802986	     -0.00861882	      0.44722815	     14.11782635	      5.44437820	     -0.95510736	    -12.90037180	     -3.05629606	     -7.77683958	      3.43712801	     28.13504141	     -1.80303438	      2.64719818	    -58.33554273	    -14.50596758	    -11.92263238	     21.44321133	      6.67090744	      1.98679780	     -0.77158973
      3.29500000	    -10.04404919	     -2.86485474	      2.12405220	     -2.66257398	     -0.00823503	      0.44786687	     13.54819319	      5.28507351	     -0.60539832	    -12.65171207	     -2.83559112	     -7.75946323	      3.41553406	     28.59021122	     -1.58785332	      2.43852978	    -57.55762980	    -13.97736243	    -11.87246405	     21.36852689	      6.60222441	      1.74223797	     -0.46084562
      3.30000000	     -9.99556542	     -2.61846914	      1.85721308	     -2.65711820	     -0.00793526	      0.44847187	     12.97964878	      5.14203558	     -0.25765669	    -12.42016376	     -2.59998028	     -7.75204125	      3.39354604	     29.02385604	     -1.40031973	      2.24490585	    -56.72545608	    -13.47715982	    -11.90231888	     21.23294731	      6.52793557	      1.52547673	     -0.18653391
      3.30500000	     -9.91138063	     -2.40251869	      1.54480318	     -2.65163277	     -0.00766381	      0.44908965	     12.35659413	      5.03380077	      0.13545294	    -12.15410350	     -2.37071150	     -7.71773858	      3.35207875	     29.40241974	     -1.27875435	      2.01426279	    -55.85316893	    -13.01513795	    -11.96397086	     20.98935953	      6.41737749	      1.35380252	      0.14234210
      3.31000000	     -9.79726940	     -2.22778906	      1.24804093	     -2.64615747	     -0.00744799	      0.44967439	     11.69921820	      4.95950617	      0.53787430	    -11.88482528	     -2.14156147	     -7.69422772	      3.28211402	     29.74670822	     -1.20700714	      1.78919286	    -54.94963910	    -12.57574002	    -12.06796883	     20.60637455	      6.27373245	      1.22545819	      0.46746080
      3.31500000	     -9.74630825	     -2.02404935	      0.96509336	     -2.64065256	     -0.00732685	      0.45023295	     11.12501408	      4.84111337	      0.86973698	    -11.63938484	     -1.91515576	     -7.68655064	      3.23876147	     30.12749432	     -1.09941508	      1.59153300	    -53.95961197	    -12.19489075	    -12.19012747	     20.28994524	      6.20456780	      1.05807150	      0.74090171
      3.32000000	     -9.66056576	     -1.84254032	      0.66415037	     -2.63515056	     -0.00722855	      0.45076536	     10.50861716	      4.74109056	      1.26085246	    -11.38692962	     -1.68167146	     -7.67244448	      3.18013951	     30.45587704	     -1.03837573	      1.36146330	    -52.92567774	    -11.85005421	    -12.33189070	     19.88521985	      6.09680339	      0.92877905	      1.06135804
      3.32500000	     -9.58712165	     -1.66799679	      0.37253991	     -2.62965514	     -0.00718723	      0.45129719	      9.91226390	      4.64131844	      1.62582493	    -11.14144334	     -1.45775737	     -7.66900760	      3.11779824	     30.77715693	     -0.98670514	      1.15615235	    -51.83364068	    -11.52304335	    -12.45523838	     19.46828930	      5.99923633	      0.79480213	      1.35911991
      3.33000000	     -9.51855296	     -1.49711238	      0.08421321	     -2.62418573	     -0.00719688	      0.45178900	      9.32941449	      4.53614892	      1.98597541	    -10.90587638	     -1.22912860	     -7.67085697	      3.05897286	     31.08607008	     -0.94464111	      0.95513373	    -50.68655171	    -11.21330775	    -12.54342994	     19.05655905	      5.90381779	      0.67225998	      1.65780100
      3.33500000	     -9.46863758	     -1.32109981	     -0.19259658	     -2.61871045	     -0.00726346	      0.45225491	      8.77583806	      4.41635042	      2.33172490	    -10.68638628	     -0.99306640	     -7.67941513	      3.00937149	     31.38665127	     -0.89929289	      0.76944606	    -49.46983890	    -10.90761118	    -12.58551064	     18.69138188	      5.82705031	      0.53920468	      1.94023041
